<svg width="512" height="512" viewBox="0 0 512 512" fill="none" xmlns="http://www.w3.org/2000/svg">
  <rect width="512" height="512" rx="40" fill="#F8FAFC"/>
  <rect x="24" y="24" width="464" height="464" rx="32" fill="white" stroke="#CBD5E1" stroke-width="2"/>
  <rect x="48" y="48" width="416" height="88" rx="24" fill="#1677FF"/>
  <text x="256" y="101" text-anchor="middle" font-family="Arial, Helvetica, sans-serif" font-size="34" font-weight="700" fill="white">ALIPAY</text>
  <text x="256" y="204" text-anchor="middle" font-family="Arial, Helvetica, sans-serif" font-size="18" font-weight="700" fill="#0F172A">DEMO PAYMENT QR</text>
  <text x="256" y="232" text-anchor="middle" font-family="Arial, Helvetica, sans-serif" font-size="14" fill="#475569">请替换为你自己的支付宝收款码</text>

  <rect x="86" y="266" width="56" height="56" rx="8" fill="#0F172A"/>
  <rect x="98" y="278" width="32" height="32" rx="4" fill="white"/>
  <rect x="110" y="290" width="8" height="8" rx="2" fill="#0F172A"/>

  <rect x="184" y="266" width="24" height="24" rx="4" fill="#0F172A"/>
  <rect x="224" y="266" width="56" height="56" rx="8" fill="#0F172A"/>
  <rect x="236" y="278" width="32" height="32" rx="4" fill="white"/>
  <rect x="248" y="290" width="8" height="8" rx="2" fill="#0F172A"/>

  <rect x="314" y="266" width="24" height="24" rx="4" fill="#0F172A"/>
  <rect x="354" y="266" width="56" height="56" rx="8" fill="#0F172A"/>
  <rect x="366" y="278" width="32" height="32" rx="4" fill="white"/>
  <rect x="378" y="290" width="8" height="8" rx="2" fill="#0F172A"/>

  <rect x="86" y="338" width="24" height="24" rx="4" fill="#0F172A"/>
  <rect x="126" y="338" width="56" height="56" rx="8" fill="#0F172A"/>
  <rect x="138" y="350" width="32" height="32" rx="4" fill="white"/>
  <rect x="150" y="362" width="8" height="8" rx="2" fill="#0F172A"/>

  <rect x="224" y="338" width="24" height="24" rx="4" fill="#0F172A"/>
  <rect x="264" y="338" width="24" height="24" rx="4" fill="#0F172A"/>
  <rect x="314" y="338" width="56" height="56" rx="8" fill="#0F172A"/>
  <rect x="326" y="350" width="32" height="32" rx="4" fill="white"/>
  <rect x="338" y="362" width="8" height="8" rx="2" fill="#0F172A"/>

  <rect x="86" y="410" width="56" height="56" rx="8" fill="#0F172A"/>
  <rect x="98" y="422" width="32" height="32" rx="4" fill="white"/>
  <rect x="110" y="434" width="8" height="8" rx="2" fill="#0F172A"/>
  <rect x="184" y="410" width="24" height="24" rx="4" fill="#0F172A"/>
  <rect x="224" y="410" width="56" height="24" rx="4" fill="#0F172A"/>
  <rect x="314" y="410" width="24" height="24" rx="4" fill="#0F172A"/>
  <rect x="354" y="410" width="56" height="56" rx="8" fill="#0F172A"/>
  <rect x="366" y="422" width="32" height="32" rx="4" fill="white"/>
  <rect x="378" y="434" width="8" height="8" rx="2" fill="#0F172A"/>
</svg>
